<svg xmlns="http://www.w3.org/2000/svg" viewBox="0 0 800 260" fill="none">
  <defs>
    <linearGradient id="g" x1="0" y1="0" x2="1" y2="0">
      <stop offset="0%" stop-color="#fbbd12"></stop>
      <stop offset="100%" stop-color="#d727c4"></stop>
    </linearGradient>
  </defs>
  
  <path d="M60 180&#xA;           C 150 120, 230 80, 310 60&#xA;           C 340 52, 360 56, 372 74&#xA;           C 382 90, 388 106, 398 118&#xA;           C 412 134, 430 136, 450 128&#xA;           C 470 118, 484 100, 492 82&#xA;           C 498 66, 510 58, 528 62&#xA;           C 560 68, 600 96, 660 128&#xA;           C 700 150, 740 168, 770 178&#xA;           C 720 176, 650 168, 580 156&#xA;           C 540 148, 512 146, 492 156&#xA;           C 474 166, 458 178, 438 182&#xA;           C 416 186, 398 180, 384 164&#xA;           C 374 152, 368 140, 358 132&#xA;           C 346 124, 332 126, 316 134&#xA;           C 260 162, 180 180, 60 180 Z" fill="url(#g)"></path>
</svg>